<svg width="24" height="24" viewBox="0 0 24 24" fill="none" xmlns="http://www.w3.org/2000/svg">
<g clip-path="url(#clip0_6162_474)">
<path d="M0 22.1539V1.84615C0 1.35652 0.194505 0.886947 0.540725 0.540725C0.886947 0.194505 1.35652 0 1.84615 0H22.1539C22.6435 0 23.113 0.194505 23.4593 0.540725C23.8054 0.886947 24 1.35652 24 1.84615V22.1539C24 22.6435 23.8054 23.113 23.4593 23.4593C23.113 23.8054 22.6435 24 22.1539 24H16.6154V15.2492H17.9261C18.2249 15.2492 18.5112 15.1306 18.7224 14.9194C18.9336 14.7082 19.0522 14.4218 19.0522 14.1231V12.7015C19.0522 12.5536 19.0233 12.4072 18.9665 12.2706C18.9099 12.134 18.827 12.0098 18.7224 11.9052C18.6178 11.8007 18.4937 11.7177 18.3571 11.6611C18.2205 11.6045 18.0741 11.5754 17.9261 11.5754H16.6892V9.84C16.6892 8.28922 17.3907 8.28922 18.0922 8.28922H18.9969C19.1455 8.29534 19.2936 8.26875 19.4307 8.21134C19.5679 8.15391 19.6908 8.06707 19.7907 7.95693C19.8981 7.85479 19.9829 7.7315 20.0402 7.59485C20.0974 7.45821 20.1255 7.31119 20.1231 7.16307V5.79693C20.1279 5.64658 20.1033 5.49675 20.0503 5.35599C19.9971 5.21523 19.9169 5.0863 19.8141 4.97657C19.7112 4.86684 19.5878 4.77847 19.4506 4.71648C19.3137 4.65451 19.1657 4.62015 19.0154 4.61539H16.8923C16.2728 4.59209 15.6557 4.70355 15.0835 4.94208C14.5113 5.18059 13.9977 5.54047 13.5781 5.99686C13.1586 6.45326 12.8432 6.99528 12.6536 7.58549C12.464 8.17572 12.4047 8.80005 12.48 9.41539V11.5754H11.2985C11.149 11.5729 11.0006 11.6003 10.8618 11.6558C10.7231 11.7112 10.5967 11.7938 10.4902 11.8986C10.3837 12.0034 10.2991 12.1284 10.2413 12.2663C10.1836 12.4041 10.1538 12.5521 10.1539 12.7015V14.1231C10.1538 14.2725 10.1836 14.4205 10.2413 14.5583C10.2991 14.6962 10.3837 14.8212 10.4902 14.926C10.5967 15.0308 10.7231 15.1134 10.8618 15.1689C11.0006 15.2244 11.149 15.2517 11.2985 15.2492H12.48V24H1.84615C1.35652 24 0.886947 23.8054 0.540725 23.4593C0.194505 23.113 0 22.6435 0 22.1539Z" fill="black"/>
</g>
<defs>
<clipPath id="clip0_6162_474">
<rect width="24" height="24" fill="white"/>
</clipPath>
</defs>
</svg>
