<svg width="24" height="24" viewBox="0 0 24 24" fill="none" xmlns="http://www.w3.org/2000/svg">
<g clip-path="url(#clip0_6162_468)">
<mask id="mask0_6162_468" style="mask-type:luminance" maskUnits="userSpaceOnUse" x="0" y="0" width="24" height="24">
<path d="M24 0H0V24H24V0Z" fill="white"/>
</mask>
<g mask="url(#mask0_6162_468)">
<path fill-rule="evenodd" clip-rule="evenodd" d="M0 6.857C0 4.49007 1.91878 2.57129 4.28571 2.57129H19.7143C22.0812 2.57129 24 4.49007 24 6.857V17.1427C24 19.5096 22.0812 21.4284 19.7143 21.4284H4.28571C1.91878 21.4284 0 19.5096 0 17.1427V6.857ZM9.10282 8.77697V15.977C9.10174 16.0979 9.13263 16.2169 9.19238 16.322C9.25212 16.4271 9.33857 16.5145 9.44301 16.5754C9.54742 16.6364 9.6661 16.6686 9.78699 16.6689C9.90789 16.6691 10.0267 16.6374 10.1314 16.577L16.3028 12.977C16.4059 12.9165 16.4914 12.8301 16.5509 12.7263C16.6103 12.6226 16.6415 12.5051 16.6415 12.3855C16.6415 12.266 16.6103 12.1485 16.5509 12.0448C16.4914 11.941 16.4059 11.8546 16.3028 11.7941L10.1314 8.19411C10.029 8.12858 9.91058 8.09223 9.78902 8.08897C9.66746 8.08572 9.5473 8.11567 9.4415 8.17563C9.33569 8.23558 9.24825 8.32327 9.18857 8.42923C9.1289 8.53519 9.09926 8.65541 9.10282 8.77697Z" fill="black"/>
</g>
</g>
<defs>
<clipPath id="clip0_6162_468">
<rect width="24" height="24" fill="white"/>
</clipPath>
</defs>
</svg>
