<svg width="21" height="21" viewBox="0 0 21 21" fill="none" xmlns="http://www.w3.org/2000/svg">
<path fill-rule="evenodd" clip-rule="evenodd" d="M0 4.46362C0 1.99843 1.99843 0 4.4636 0H16.3666C18.8317 0 20.8301 1.99843 20.8301 4.46362V16.3667C20.8301 18.8318 18.8317 20.8302 16.3666 20.8302H4.4636C1.99843 20.8302 0 18.8318 0 16.3667V4.46362ZM10.4153 6.84919C8.44598 6.84919 6.8495 8.44567 6.8495 10.415C6.8495 12.3844 8.44598 13.9809 10.4153 13.9809C12.3846 13.9809 13.9811 12.3844 13.9811 10.415C13.9811 8.44567 12.3846 6.84919 10.4153 6.84919ZM5.13521 10.415C5.13521 7.49889 7.49919 5.1349 10.4153 5.1349C13.3314 5.1349 15.6954 7.49889 15.6954 10.415C15.6954 13.3312 13.3314 15.6951 10.4153 15.6951C7.49919 15.6951 5.13521 13.3312 5.13521 10.415ZM16.3687 5.48311C16.9675 5.48311 17.4528 4.99767 17.4528 4.39887C17.4528 3.80006 16.9675 3.31462 16.3687 3.31462C15.7698 3.31462 15.2844 3.80006 15.2844 4.39887C15.2844 4.99767 15.7698 5.48311 16.3687 5.48311Z" fill="#060606"/>
</svg>
